<svg width="9" height="9" viewBox="0 0 9 9" fill="none" xmlns="http://www.w3.org/2000/svg">
<path d="M2.884 3.748L4.052 3.764L4.132 0.372C4.28133 0.34 4.43067 0.323999 4.58 0.323999L5.108 0.372C5.236 1.05467 5.3 1.67867 5.3 2.244C5.3 2.80933 5.29467 3.32667 5.284 3.796L8.468 3.86C8.48933 3.96667 8.5 4.12133 8.5 4.324L8.468 4.804C7.78533 4.932 7.17733 4.996 6.644 4.996C6.12133 4.996 5.65733 4.99067 5.252 4.98L5.188 8.5C5.08133 8.52133 4.92667 8.532 4.724 8.532L4.212 8.5C4.084 7.81733 4.02 7.188 4.02 6.612C4.02 6.02533 4.02533 5.476 4.036 4.964L0.948 4.884C0.916 4.73467 0.9 4.59067 0.9 4.452L0.948 3.94C1.63067 3.812 2.276 3.748 2.884 3.748Z" fill="black"/>
</svg>
