<svg width="111" height="48" viewBox="0 0 111 48" fill="none" xmlns="http://www.w3.org/2000/svg">
<path d="M11.772 36.66C16.62 36.66 19.044 33.252 19.044 26.436C19.044 19.596 16.62 16.176 11.772 16.176C9.492 16.176 7.632 16.512 6.192 17.184C4.896 19.752 4.248 22.716 4.248 26.076C4.248 29.412 4.8 32.016 5.904 33.888C7.032 35.736 8.988 36.66 11.772 36.66ZM0.72 26.544C0.72 22.32 1.584 19.068 3.312 16.788C5.064 14.484 7.896 13.332 11.808 13.332C15.744 13.332 18.516 14.388 20.124 16.5C21.756 18.588 22.572 21.756 22.572 26.004C22.572 30.252 21.696 33.552 19.944 35.904C18.216 38.256 15.444 39.432 11.628 39.432C7.836 39.432 5.064 38.34 3.312 36.156C1.584 33.972 0.72 30.768 0.72 26.544ZM35.6566 23.304C35.5366 23.184 35.2726 23.124 34.8646 23.124C34.4566 23.124 33.8446 23.268 33.0286 23.556C32.2366 23.844 31.5166 24.18 30.8686 24.564C30.7246 29.892 30.6286 33.888 30.5806 36.552L33.6046 36.84C33.6046 37.512 33.4006 38.232 32.9926 39H24.7126L24.6046 37.74C25.7086 37.356 26.7886 37.068 27.8446 36.876C27.7006 30.78 27.5806 26.268 27.4846 23.34C26.1646 23.268 25.1086 23.124 24.3166 22.908L24.4606 21.036C25.7326 20.676 27.6166 20.496 30.1126 20.496C30.4966 21.096 30.7366 21.864 30.8326 22.8C33.5926 21.12 35.2366 20.28 35.7646 20.28C36.2926 20.28 36.9046 20.388 37.6006 20.604C38.2966 20.796 38.8126 21.012 39.1486 21.252C39.1486 23.652 38.9206 25.608 38.4646 27.12C38.1286 27.216 37.7326 27.264 37.2766 27.264C36.8446 27.264 36.5446 27.252 36.3766 27.228L35.6566 23.304ZM50.2805 36.804L53.4845 36.732C56.7965 36.732 58.4525 38.1 58.4525 40.836C58.4525 42.108 57.9005 43.284 56.7965 44.364C55.7165 45.468 54.4205 46.296 52.9085 46.848C51.3965 47.4 49.9805 47.676 48.6605 47.676C47.3645 47.676 46.1525 47.484 45.0245 47.1C43.8965 46.74 42.9365 46.14 42.1445 45.3C41.3525 44.46 40.9565 43.488 40.9565 42.384C40.9565 42.12 41.3765 41.424 42.2165 40.296C43.0805 39.192 43.6445 38.544 43.9085 38.352C43.6925 38.208 43.2725 37.8 42.6485 37.128C42.0245 36.432 41.6765 35.952 41.6045 35.688C42.2045 34.584 43.1525 33.504 44.4485 32.448C42.5285 31.296 41.5685 29.4 41.5685 26.76C41.5685 24.648 42.2405 23.04 43.5845 21.936C44.9285 20.832 46.6085 20.28 48.6245 20.28C50.6405 20.28 52.2005 20.604 53.3045 21.252C55.2245 20.868 57.1085 20.676 58.9565 20.676C59.4125 20.676 59.6405 20.952 59.6405 21.504C59.6405 22.464 59.4605 23.124 59.1005 23.484L54.9605 22.8C55.8245 23.904 56.2565 25.224 56.2565 26.76C56.2565 29.16 55.5485 30.888 54.1325 31.944C52.7165 32.976 50.9765 33.492 48.9125 33.492C48.2645 33.492 47.4965 33.408 46.6085 33.24C46.2485 33.984 45.7925 34.788 45.2405 35.652C45.6725 36.42 47.3525 36.804 50.2805 36.804ZM54.8525 43.428C55.0925 42.756 55.2125 42.06 55.2125 41.34C55.2125 40.644 54.9365 40.08 54.3845 39.648C53.8325 39.216 53.1245 39 52.2605 39C48.8285 39 46.7285 38.964 45.9605 38.892C45.3125 39.924 44.8565 40.788 44.5925 41.484C44.3525 42.204 44.2325 42.612 44.2325 42.708C44.2325 43.644 44.6765 44.34 45.5645 44.796C46.4525 45.252 47.4725 45.48 48.6245 45.48C49.8005 45.48 50.9765 45.288 52.1525 44.904C53.3525 44.52 54.2525 44.028 54.8525 43.428ZM53.0165 26.904C53.0165 23.928 51.6485 22.44 48.9125 22.44C46.1765 22.44 44.8085 23.88 44.8085 26.76C44.8085 28.224 45.1685 29.352 45.8885 30.144C46.6085 30.936 47.6525 31.332 49.0205 31.332C51.6845 31.332 53.0165 29.856 53.0165 26.904ZM76.061 27.228L75.881 36.516C76.913 36.588 77.945 36.756 78.977 37.02L78.905 38.28C78.521 38.472 77.825 38.688 76.817 38.928C75.833 39.144 74.861 39.252 73.901 39.252C73.469 38.388 73.229 37.56 73.181 36.768C70.445 38.568 68.525 39.468 67.421 39.468C65.717 39.468 64.349 39.012 63.317 38.1C62.285 37.188 61.769 35.916 61.769 34.284C61.769 30.516 64.073 28.572 68.681 28.452C71.369 28.38 72.725 28.344 72.749 28.344L72.713 27.12C72.665 25.464 72.353 24.276 71.777 23.556C71.201 22.812 70.169 22.44 68.681 22.44C68.057 22.44 67.385 22.584 66.665 22.872L65.801 26.472C65.681 26.496 65.477 26.508 65.189 26.508L63.713 26.4C63.329 25.368 63.125 23.94 63.101 22.116C63.557 21.876 64.601 21.516 66.233 21.036C67.865 20.532 68.909 20.28 69.365 20.28C71.813 20.28 73.541 20.82 74.549 21.9C75.557 22.98 76.061 24.756 76.061 27.228ZM68.213 37.02C68.909 37.02 70.517 36.24 73.037 34.68L72.857 30.18C71.225 30.324 69.857 30.456 68.753 30.576C67.649 30.696 66.761 31.02 66.089 31.548C65.417 32.052 65.081 32.856 65.081 33.96C65.081 36 66.125 37.02 68.213 37.02ZM85.3152 38.892C84.6912 39.036 84.0792 39.108 83.4792 39.108C82.9032 39.108 82.3272 39.072 81.7512 39C81.6072 38.328 81.5352 37.656 81.5352 36.984C81.5352 36.288 81.5592 35.772 81.6072 35.436C82.1352 35.316 82.6872 35.256 83.2632 35.256C83.8632 35.256 84.4992 35.28 85.1712 35.328C85.3152 35.952 85.3872 36.564 85.3872 37.164C85.3872 37.74 85.3632 38.316 85.3152 38.892Z" fill="#DB4A2B"/>
<path d="M62.965 3.9C64.0657 3.9 64.8803 4.082 65.409 4.446C65.9463 4.80133 66.215 5.434 66.215 6.344C66.215 7.254 65.9507 7.97767 65.422 8.515C64.8933 9.04367 64.0397 9.308 62.861 9.308H61.769L61.73 12.129L62.744 12.22C62.744 12.4627 62.6703 12.7227 62.523 13H59.598L59.559 12.558C59.923 12.4193 60.2957 12.3153 60.677 12.246C60.625 8.866 60.5817 6.35267 60.547 4.706C60.313 4.66267 59.9317 4.55867 59.403 4.394L59.468 3.9H62.965ZM62.731 8.463C63.4763 8.45433 64.044 8.268 64.434 7.904C64.824 7.53133 65.019 7.04167 65.019 6.435C65.019 5.82833 64.8283 5.408 64.447 5.174C64.0657 4.93133 63.4547 4.81 62.614 4.81C62.458 4.81 62.1937 4.81433 61.821 4.823C61.821 4.83167 61.808 6.04933 61.782 8.476L62.731 8.463ZM70.9365 7.332C70.8932 7.28867 70.7979 7.267 70.6505 7.267C70.5032 7.267 70.2822 7.319 69.9875 7.423C69.7015 7.527 69.4415 7.64833 69.2075 7.787C69.1555 9.711 69.1209 11.154 69.1035 12.116L70.1955 12.22C70.1955 12.4627 70.1219 12.7227 69.9745 13H66.9845L66.9455 12.545C67.3442 12.4063 67.7342 12.3023 68.1155 12.233C68.0635 10.0317 68.0202 8.40233 67.9855 7.345C67.5089 7.319 67.1275 7.267 66.8415 7.189L66.8935 6.513C67.3529 6.383 68.0332 6.318 68.9345 6.318C69.0732 6.53467 69.1599 6.812 69.1945 7.15C70.1912 6.54333 70.7849 6.24 70.9755 6.24C71.1662 6.24 71.3872 6.279 71.6385 6.357C71.8899 6.42633 72.0762 6.50433 72.1975 6.591C72.1975 7.45767 72.1152 8.164 71.9505 8.71C71.8292 8.74467 71.6862 8.762 71.5215 8.762C71.3655 8.762 71.2572 8.75767 71.1965 8.749L70.9365 7.332ZM75.7884 12.376C76.5164 12.376 77.006 12.1507 77.2574 11.7C77.5174 11.2407 77.6474 10.5907 77.6474 9.75C77.6474 8.41533 77.3527 7.579 76.7634 7.241C76.5207 7.10233 76.1784 7.033 75.7364 7.033C75.303 7.033 74.8914 7.124 74.5014 7.306C74.1547 7.97333 73.9814 8.749 73.9814 9.633C73.9814 10.4823 74.094 11.1367 74.3194 11.596C74.5794 12.116 75.069 12.376 75.7884 12.376ZM72.7854 9.75C72.7854 8.64933 73.0367 7.79133 73.5394 7.176C74.042 6.552 74.8177 6.24 75.8664 6.24C76.915 6.24 77.6734 6.526 78.1414 7.098C78.6094 7.66133 78.8434 8.49767 78.8434 9.607C78.8434 10.7163 78.592 11.5873 78.0894 12.22C77.5954 12.8527 76.8414 13.169 75.8274 13.169C74.8134 13.169 74.0507 12.8743 73.5394 12.285C73.0367 11.6957 72.7854 10.8507 72.7854 9.75Z" fill="#DB4A2B"/>
</svg>
